<?xml version="1.0" encoding="iso-8859-1"?>
<!-- Generator: Adobe Illustrator 16.0.0, SVG Export Plug-In . SVG Version: 6.00 Build 0)  -->
<!DOCTYPE svg PUBLIC "-//W3C//DTD SVG 1.1//EN" "http://www.w3.org/Graphics/SVG/1.1/DTD/svg11.dtd">
<svg version="1.1" id="Capa_1" xmlns="http://www.w3.org/2000/svg" xmlns:xlink="http://www.w3.org/1999/xlink" x="0px" y="0px"
	 width="49.264px" height="49.264px" viewBox="0 0 49.264 49.264" style="enable-background:new 0 0 49.264 49.264;"
	 xml:space="preserve">
<g>
	<g>
		<path d="M49.012,23.354c-0.535-0.963-1.748-1.306-2.713-0.772l-15.864,8.833c-0.556-0.601-1.186-1.123-1.884-1.534l13.839-7.706
			c0.963-0.536,1.309-1.75,0.772-2.713l-8.205-14.74c-0.537-0.962-1.75-1.309-2.714-0.773l-14.742,8.206
			c-0.963,0.536-1.309,1.75-0.773,2.713l7.708,13.846c-0.063-0.001-0.123-0.012-0.185-0.012c-0.755,0-1.505,0.109-2.232,0.309
			L11.716,10.508c-0.334-0.601-0.955-0.987-1.641-1.022l-7.98-0.405c-1.102-0.056-2.038,0.79-2.093,1.891
			c-0.056,1.098,0.792,2.036,1.891,2.093l6.876,0.35l9.764,17.537c-1.125,1.039-1.955,2.363-2.386,3.872
			c-0.617,2.166-0.354,4.444,0.742,6.41c1.488,2.673,4.314,4.332,7.374,4.332c1.427,0,2.845-0.367,4.096-1.064
			c1.969-1.097,3.394-2.892,4.009-5.06c0.432-1.512,0.422-3.072,0.015-4.548l15.856-8.828C49.201,25.53,49.548,24.317,49.012,23.354
			z M24.288,41.635c-2.48,0-4.492-2.011-4.492-4.489c0-2.48,2.012-4.492,4.492-4.492s4.493,2.012,4.493,4.492
			C28.78,39.624,26.769,41.635,24.288,41.635z"/>
	</g>
</g>
<g>
</g>
<g>
</g>
<g>
</g>
<g>
</g>
<g>
</g>
<g>
</g>
<g>
</g>
<g>
</g>
<g>
</g>
<g>
</g>
<g>
</g>
<g>
</g>
<g>
</g>
<g>
</g>
<g>
</g>
</svg>
